<svg id="Capa_1" data-name="Capa 1" xmlns="http://www.w3.org/2000/svg" viewBox="0 0 32 32"><defs><style>.cls-1{fill:#323332;}.cls-2{fill:#f5f3ef;}</style></defs><circle class="cls-1" cx="16" cy="16" r="14.81"/><path class="cls-2" d="M24.88,23.1c-.2,0-1.83,0-2,0-.17-.43-.32-.87-.48-1.31l-.48-1.3-.49-1.32-.48-1.32c-.15-.44-.31-.87-.47-1.31s-.31-.88-.46-1.33-.31-.87-.46-1.3-.32-.88-.47-1.33a.27.27,0,0,0-.11.19c-.27.69-.53,1.39-.8,2.08-.35.93-.69,1.85-1,2.77a.66.66,0,0,0,0,.5q.89,2.37,1.75,4.76c0,.07.07.13.05.21-.19,0-1.81,0-2,0-.43-1.16-.86-2.33-1.28-3.49s-.85-2.34-1.27-3.51-.82-2.34-1.24-3.51c-.08,0-.08.09-.1.13-.15.39-.29.78-.44,1.16q-.91,2.43-1.82,4.84c-.52,1.39-1,2.78-1.51,4.17,0,.06-.05.13-.07.2a.53.53,0,0,1-.12,0H7.14c0-.08,0-.14,0-.2L7.88,21,12.14,9.32l.18-.49a9.82,9.82,0,0,1,1.35,0,.47.47,0,0,1,.1.2c.28.78.57,1.56.86,2.35.4,1.11.81,2.21,1.21,3.32,0,.07.06.13.09.21a.37.37,0,0,0,.08-.15L17.87,10c.12-.33.25-.66.38-1l0-.09c0-.05.06-.08.11-.08h1.23a.27.27,0,0,1,.12.2l.84,2.29,4.23,11.55A1.26,1.26,0,0,1,24.88,23.1Z"/></svg>