<svg id="Capa_1" data-name="Capa 1" xmlns="http://www.w3.org/2000/svg" viewBox="0 0 32 32"><defs><style>.cls-1{fill:#323332;}.cls-2{fill:#f5f3ef;}</style></defs><circle class="cls-1" cx="16" cy="16" r="14.81"/><path class="cls-2" d="M8.53,11.66l.38.38,1.32,1.32.09.09a.18.18,0,0,1,0,.17c0,.05,0,.1,0,.15A7.31,7.31,0,0,0,10,16.71,6.71,6.71,0,0,0,11,19.57a5.75,5.75,0,0,0,3.64,2.67,5.51,5.51,0,0,0,1.51.16A5.62,5.62,0,0,0,19.83,21a6,6,0,0,0,1.83-2.8A7.65,7.65,0,0,0,22,15.52a6.82,6.82,0,0,0-.69-2.69,5.79,5.79,0,0,0-3.59-3.08,5.7,5.7,0,0,0-2.43-.19,2,2,0,0,0-.34,0,.39.39,0,0,1-.39-.12c-.34-.37-.7-.72-1.06-1.07l-.58-.59a.74.74,0,0,1-.12-.13c0-.09.13-.1.19-.13a9,9,0,0,1,1.35-.38A8.59,8.59,0,0,1,16.42,7a8.19,8.19,0,0,1,5.37,2.27,8.64,8.64,0,0,1,2.41,4.12,9.08,9.08,0,0,1,.27,1.71,11.43,11.43,0,0,1,0,1.17,9.09,9.09,0,0,1-1.44,4.8A8.29,8.29,0,0,1,18,24.68a7.2,7.2,0,0,1-1.85.21,11.56,11.56,0,0,1-1.55-.12,8,8,0,0,1-3.78-1.64,8.52,8.52,0,0,1-2.95-4.4,9.66,9.66,0,0,1-.38-3.25,9.28,9.28,0,0,1,.87-3.58A.37.37,0,0,1,8.53,11.66Z"/><path class="cls-2" d="M12.7,10.48c-.22.19-.46.37-.67.56s-.41.42-.63.64c0,0-.06,0-.09-.06L9.73,10.05a1,1,0,0,1-.08-.11A2.87,2.87,0,0,1,10,9.49l.44-.41a1.7,1.7,0,0,1,.46-.35s.06,0,.08,0l1.65,1.65S12.69,10.45,12.7,10.48Z"/></svg>